<svg width="94" height="93" viewBox="0 0 94 93" fill="none" xmlns="http://www.w3.org/2000/svg">
<path d="M11.7 0C10.831 0.00138482 9.9873 0.315295 9.30284 0.891912C8.61837 1.46853 8.13234 2.27482 7.92187 3.18281L7.91426 3.19102C7.90044 3.24814 7.88774 3.30558 7.87617 3.36328L0.121875 36.7664C0.0415721 37.1042 0.000632147 37.4514 0 37.8C0 38.9139 0.410891 39.9822 1.14228 40.7699C1.87368 41.5575 2.86566 42 3.9 42V84C3.9 88.5909 7.43705 92.4 11.7 92.4H81.9C86.1629 92.4 89.7 88.5909 89.7 84V42C90.7343 42 91.7263 41.5575 92.4577 40.7699C93.1891 39.9822 93.6 38.9139 93.6 37.8C93.5994 37.4514 93.5584 37.1042 93.4781 36.7664L85.6857 3.19102L85.6781 3.18281C85.4677 2.27482 84.9816 1.46853 84.2972 0.891912C83.6127 0.315295 82.769 0.00138482 81.9 0H46.8H11.7ZM46.8 16.8L70.2 42H81.9V84H54.6V63C54.6 58.359 51.1095 54.6 46.8 54.6C42.4905 54.6 39 58.359 39 63V84H11.7V42H23.4L46.8 16.8ZM19.5 54.6V67.2H31.2V54.6H19.5ZM62.4 54.6V67.2H74.1V54.6H62.4Z" fill="#FFC107"/>
</svg>
