<svg width="434" height="137" viewBox="0 0 434 137" fill="none" xmlns="http://www.w3.org/2000/svg">
<path d="M78.2368 47.3097L70.6185 38.9872L70.1725 38.5H69.512H54.0649H53.4044L52.9585 38.9872L46.0931 46.4872L45.166 47.5L46.0931 48.5128L52.9585 56.0128L53.4044 56.5H54.0649H73.2245C75.1931 56.5176 77.1236 57.3952 78.5554 58.9758L78.5606 58.9816L92.2914 73.9816L92.2967 73.9873C93.7468 75.555 94.5986 77.7276 94.6154 80.0048V84.9952C94.5986 87.2724 93.7468 89.445 92.2967 91.0127L92.2914 91.0184L78.5606 106.018L78.5554 106.024C77.1235 107.605 75.1929 108.482 73.224 108.5H45.776C43.8072 108.482 41.8765 107.605 40.4447 106.024L40.4394 106.018L29.9242 94.5312L40.7632 82.6903L48.3815 91.0128L48.8275 91.5H49.488H69.512H70.1725L70.6185 91.0128L77.4838 83.5128L78.411 82.5L77.4838 81.4872L70.6185 73.9872L70.1725 73.5H69.512H50.3525C48.3838 73.4824 46.4534 72.6048 45.0216 71.0242L45.0163 71.0184L31.2855 56.0184L31.2802 56.0127C29.83 54.4449 28.9782 52.2721 28.9615 49.9947V45.0053C28.9782 42.7279 29.83 40.5551 31.2802 38.9873L31.2802 38.9873L31.2855 38.9816L45.0163 23.9816L45.0223 23.975L45.0282 23.9684C46.2737 22.575 47.8974 21.7104 49.6273 21.4941C49.8329 21.4817 50.0384 21.4825 50.244 21.4965L50.295 21.5H50.3462H73.2244C75.1931 21.5176 77.1236 22.3952 78.5554 23.9758L78.5606 23.9816L89.0758 35.4688L78.2368 47.3097Z" fill="#FFC107" stroke="#3940CB" stroke-width="3"/>
<g filter="url(#filter0_d)">
<path d="M115.875 60.7188C119.25 56.4688 123.562 54.3438 128.812 54.3438C134.406 54.3438 138.625 56 141.469 59.3125C144.312 62.625 145.766 67.5156 145.828 73.9844V106H129.984V74.3594C129.984 71.6719 129.438 69.7031 128.344 68.4531C127.25 67.1719 125.391 66.5312 122.766 66.5312C119.516 66.5312 117.219 67.5625 115.875 69.625V106H100.078V34H115.875V60.7188ZM152.625 80.1719C152.625 75.1094 153.609 70.6094 155.578 66.6719C157.547 62.7031 160.375 59.6562 164.062 57.5312C167.75 55.4062 172.078 54.3438 177.047 54.3438C184.641 54.3438 190.625 56.7031 195 61.4219C199.375 66.1094 201.562 72.5 201.562 80.5938V81.1562C201.562 89.0625 199.359 95.3438 194.953 100C190.578 104.625 184.641 106.938 177.141 106.938C169.922 106.938 164.125 104.781 159.75 100.469C155.375 96.125 153.016 90.25 152.672 82.8438L152.625 80.1719ZM168.422 81.1562C168.422 85.8438 169.156 89.2812 170.625 91.4688C172.094 93.6562 174.266 94.75 177.141 94.75C182.766 94.75 185.641 90.4219 185.766 81.7656V80.1719C185.766 71.0781 182.859 66.5312 177.047 66.5312C171.766 66.5312 168.906 70.4531 168.469 78.2969L168.422 81.1562ZM255.609 81.0156C255.609 88.8906 253.828 95.1875 250.266 99.9062C246.734 104.594 241.953 106.938 235.922 106.938C231.266 106.938 227.438 105.234 224.438 101.828V125.5H208.641V55.2812H223.406L223.875 59.9688C226.906 56.2188 230.891 54.3438 235.828 54.3438C242.078 54.3438 246.938 56.6562 250.406 61.2812C253.875 65.875 255.609 72.2031 255.609 80.2656V81.0156ZM239.812 80.0312C239.812 71.0312 237.188 66.5312 231.938 66.5312C228.188 66.5312 225.688 67.875 224.438 70.5625V90.5312C225.812 93.3438 228.344 94.75 232.031 94.75C237.062 94.75 239.656 90.4062 239.812 81.7188V80.0312ZM280.875 106H264.469V37.75H280.875V106ZM306.094 55.2812L306.609 61.2344C310.109 56.6406 314.938 54.3438 321.094 54.3438C326.375 54.3438 330.312 55.9219 332.906 59.0781C335.531 62.2344 336.891 66.9844 336.984 73.3281V106H321.141V73.9844C321.141 71.4219 320.625 69.5469 319.594 68.3594C318.562 67.1406 316.688 66.5312 313.969 66.5312C310.875 66.5312 308.578 67.75 307.078 70.1875V106H291.281V55.2812H306.094Z" fill="#3940CB"/>
<path d="M115.875 60.7188H112.875V69.3206L118.224 62.5844L115.875 60.7188ZM145.828 73.9844H148.828V73.9699L148.828 73.9554L145.828 73.9844ZM145.828 106V109H148.828V106H145.828ZM129.984 106H126.984V109H129.984V106ZM128.344 68.4531L126.062 70.4009L126.074 70.4148L126.086 70.4286L128.344 68.4531ZM115.875 69.625L113.361 67.9874L112.875 68.7339V69.625H115.875ZM115.875 106V109H118.875V106H115.875ZM100.078 106H97.0781V109H100.078V106ZM100.078 34V31H97.0781V34H100.078ZM115.875 34H118.875V31H115.875V34ZM118.224 62.5844C121.053 59.023 124.513 57.3438 128.812 57.3438V51.3438C122.612 51.3438 117.447 53.9145 113.526 58.8531L118.224 62.5844ZM128.812 57.3438C133.796 57.3438 137.071 58.7953 139.192 61.2666L143.745 57.3584C140.179 53.2047 135.017 51.3438 128.812 51.3438V57.3438ZM139.192 61.2666C141.399 63.8366 142.769 67.9215 142.828 74.0134L148.828 73.9554C148.762 67.1097 147.226 61.4134 143.745 57.3584L139.192 61.2666ZM142.828 73.9844V106H148.828V73.9844H142.828ZM145.828 103H129.984V109H145.828V103ZM132.984 106V74.3594H126.984V106H132.984ZM132.984 74.3594C132.984 71.3672 132.393 68.5251 130.601 66.4776L126.086 70.4286C126.482 70.8811 126.984 71.9765 126.984 74.3594H132.984ZM130.625 66.5053C128.707 64.2575 125.779 63.5312 122.766 63.5312V69.5312C125.002 69.5312 125.793 70.0863 126.062 70.4009L130.625 66.5053ZM122.766 63.5312C118.864 63.5312 115.431 64.8102 113.361 67.9874L118.389 71.2626C119.006 70.3148 120.167 69.5312 122.766 69.5312V63.5312ZM112.875 69.625V106H118.875V69.625H112.875ZM115.875 103H100.078V109H115.875V103ZM103.078 106V34H97.0781V106H103.078ZM100.078 37H115.875V31H100.078V37ZM112.875 34V60.7188H118.875V34H112.875ZM152.625 80.1719H149.625V80.1982L149.625 80.2245L152.625 80.1719ZM155.578 66.6719L158.261 68.0135L158.266 68.005L155.578 66.6719ZM195 61.4219L192.8 63.4616L192.807 63.4688L195 61.4219ZM194.953 100L192.774 97.938L192.774 97.9384L194.953 100ZM159.75 100.469L157.636 102.598L157.644 102.605L159.75 100.469ZM152.672 82.8438L149.672 82.8964L149.673 82.9396L149.675 82.9828L152.672 82.8438ZM168.422 81.1562L165.422 81.1071L165.422 81.1317V81.1562H168.422ZM185.766 81.7656L188.765 81.8089L188.766 81.7873V81.7656H185.766ZM168.469 78.2969L165.473 78.1298L165.47 78.1887L165.469 78.2477L168.469 78.2969ZM155.625 80.1719C155.625 75.5051 156.53 71.476 158.261 68.0135L152.895 65.3302C150.689 69.7427 149.625 74.7137 149.625 80.1719H155.625ZM158.266 68.005C159.983 64.5435 162.407 61.9475 165.56 60.1305L162.565 54.932C158.343 57.365 155.111 60.8628 152.891 65.3387L158.266 68.005ZM165.56 60.1305C168.721 58.3091 172.515 57.3438 177.047 57.3438V51.3438C171.641 51.3438 166.779 52.5034 162.565 54.932L165.56 60.1305ZM177.047 57.3438C183.969 57.3438 189.095 59.4657 192.8 63.4616L197.2 59.3822C192.155 53.9406 185.312 51.3438 177.047 51.3438V57.3438ZM192.807 63.4688C196.537 67.4656 198.562 73.0522 198.562 80.5938H204.562C204.562 71.9478 202.213 64.7531 197.193 59.3749L192.807 63.4688ZM198.562 80.5938V81.1562H204.562V80.5938H198.562ZM198.562 81.1562C198.562 88.4837 196.537 93.962 192.774 97.938L197.132 102.062C202.182 96.7255 204.562 89.6413 204.562 81.1562H198.562ZM192.774 97.9384C189.066 101.858 183.976 103.938 177.141 103.938V109.938C185.306 109.938 192.09 107.392 197.133 102.062L192.774 97.9384ZM177.141 103.938C170.562 103.938 165.572 101.995 161.856 98.3322L157.644 102.605C162.678 107.567 169.282 109.938 177.141 109.938V103.938ZM161.864 98.3398C158.126 94.6287 155.985 89.521 155.669 82.7047L149.675 82.9828C150.046 90.979 152.624 97.6213 157.636 102.598L161.864 98.3398ZM155.671 82.7911L155.625 80.1193L149.625 80.2245L149.672 82.8964L155.671 82.7911ZM165.422 81.1562C165.422 86.0339 166.163 90.205 168.134 93.1411L173.116 89.7964C172.149 88.3575 171.422 85.6536 171.422 81.1562H165.422ZM168.134 93.1411C170.218 96.2439 173.374 97.75 177.141 97.75V91.75C175.158 91.75 173.97 91.0686 173.116 89.7964L168.134 93.1411ZM177.141 97.75C180.86 97.75 183.969 96.2437 186.015 93.1638C187.919 90.2974 188.699 86.3693 188.765 81.8089L182.766 81.7223C182.707 85.8182 181.988 88.3822 181.017 89.844C180.188 91.0923 179.047 91.75 177.141 91.75V97.75ZM188.766 81.7656V80.1719H182.766V81.7656H188.766ZM188.766 80.1719C188.766 75.4018 188.021 71.3095 186.114 68.3257C184.06 65.1132 180.882 63.5312 177.047 63.5312V69.5312C179.024 69.5312 180.205 70.2228 181.058 71.5571C182.057 73.1202 182.766 75.8482 182.766 80.1719H188.766ZM177.047 63.5312C173.546 63.5312 170.567 64.8936 168.517 67.7053C166.596 70.3403 165.706 73.9546 165.473 78.1298L171.464 78.4639C171.669 74.7954 172.427 72.5269 173.366 71.24C174.175 70.1298 175.267 69.5312 177.047 69.5312V63.5312ZM165.469 78.2477L165.422 81.1071L171.421 81.2054L171.468 78.3461L165.469 78.2477ZM250.266 99.9062L247.871 98.0986L247.869 98.1011L250.266 99.9062ZM224.438 101.828L226.689 99.8453L221.438 93.8829V101.828H224.438ZM224.438 125.5V128.5H227.438V125.5H224.438ZM208.641 125.5H205.641V128.5H208.641V125.5ZM208.641 55.2812V52.2812H205.641V55.2812H208.641ZM223.406 55.2812L226.391 54.9827L226.121 52.2812H223.406V55.2812ZM223.875 59.9688L220.89 60.2673L221.617 67.5348L226.208 61.8547L223.875 59.9688ZM250.406 61.2812L248.006 63.0813L248.012 63.0891L250.406 61.2812ZM224.438 70.5625L221.717 69.2973L221.438 69.899V70.5625H224.438ZM224.438 90.5312H221.438V91.2253L221.742 91.8489L224.438 90.5312ZM239.812 81.7188L242.812 81.7727L242.812 81.7457V81.7188H239.812ZM252.609 81.0156C252.609 88.4535 250.928 94.0495 247.871 98.0986L252.66 101.714C256.728 96.3255 258.609 89.3277 258.609 81.0156H252.609ZM247.869 98.1011C244.923 102.012 241.042 103.938 235.922 103.938V109.938C242.865 109.938 248.546 107.175 252.662 101.711L247.869 98.1011ZM235.922 103.938C232.102 103.938 229.103 102.586 226.689 99.8453L222.186 103.811C225.772 107.883 230.429 109.938 235.922 109.938V103.938ZM221.438 101.828V125.5H227.438V101.828H221.438ZM224.438 122.5H208.641V128.5H224.438V122.5ZM211.641 125.5V55.2812H205.641V125.5H211.641ZM208.641 58.2812H223.406V52.2812H208.641V58.2812ZM220.421 55.5798L220.89 60.2673L226.86 59.6702L226.391 54.9827L220.421 55.5798ZM226.208 61.8547C228.654 58.8287 231.771 57.3438 235.828 57.3438V51.3438C230.01 51.3438 225.158 53.6088 221.542 58.0828L226.208 61.8547ZM235.828 57.3438C241.223 57.3438 245.155 59.28 248.006 63.0812L252.806 59.4813C248.72 54.0325 242.934 51.3438 235.828 51.3438V57.3438ZM248.012 63.0891C250.958 66.9898 252.609 72.6003 252.609 80.2656H258.609C258.609 71.8059 256.792 64.7602 252.8 59.4734L248.012 63.0891ZM252.609 80.2656V81.0156H258.609V80.2656H252.609ZM242.812 80.0312C242.812 75.3378 242.145 71.3266 240.435 68.3946C238.58 65.2142 235.619 63.5312 231.938 63.5312V69.5312C233.506 69.5312 234.483 70.0983 235.252 71.4179C236.167 72.9859 236.812 75.7247 236.812 80.0312H242.812ZM231.938 63.5312C229.72 63.5312 227.634 63.9267 225.83 64.8966C223.983 65.8894 222.603 67.394 221.717 69.2973L227.158 71.8277C227.522 71.0435 228.017 70.5325 228.67 70.1815C229.366 69.8076 230.405 69.5312 231.938 69.5312V63.5312ZM221.438 70.5625V90.5312H227.438V70.5625H221.438ZM221.742 91.8489C222.676 93.7594 224.064 95.2921 225.91 96.3178C227.727 97.3273 229.814 97.75 232.031 97.75V91.75C230.561 91.75 229.538 91.4696 228.824 91.0728C228.139 90.6922 227.574 90.1156 227.133 89.2136L221.742 91.8489ZM232.031 97.75C235.61 97.75 238.491 96.1026 240.326 93.0302C242.02 90.1928 242.73 86.3112 242.812 81.7727L236.813 81.6648C236.738 85.8138 236.074 88.4478 235.174 89.9542C234.415 91.2255 233.484 91.75 232.031 91.75V97.75ZM242.812 81.7188V80.0312H236.812V81.7188H242.812ZM280.875 106V109H283.875V106H280.875ZM264.469 106H261.469V109H264.469V106ZM264.469 37.75V34.75H261.469V37.75H264.469ZM280.875 37.75H283.875V34.75H280.875V37.75ZM280.875 103H264.469V109H280.875V103ZM267.469 106V37.75H261.469V106H267.469ZM264.469 40.75H280.875V34.75H264.469V40.75ZM277.875 37.75V106H283.875V37.75H277.875ZM306.094 55.2812L309.083 55.0224L308.845 52.2812H306.094V55.2812ZM306.609 61.2344L303.621 61.4932L304.291 69.228L308.996 63.0525L306.609 61.2344ZM332.906 59.0781L330.588 60.9828L330.594 60.9896L330.6 60.9964L332.906 59.0781ZM336.984 73.3281H339.984V73.306L339.984 73.2838L336.984 73.3281ZM336.984 106V109H339.984V106H336.984ZM321.141 106H318.141V109H321.141V106ZM319.594 68.3594L317.304 70.2972L317.316 70.3119L317.329 70.3264L319.594 68.3594ZM307.078 70.1875L304.523 68.6152L304.078 69.3384V70.1875H307.078ZM307.078 106V109H310.078V106H307.078ZM291.281 106H288.281V109H291.281V106ZM291.281 55.2812V52.2812H288.281V55.2812H291.281ZM303.105 55.5401L303.621 61.4932L309.598 60.9755L309.083 55.0224L303.105 55.5401ZM308.996 63.0525C311.886 59.2588 315.802 57.3438 321.094 57.3438V51.3438C314.073 51.3438 308.333 54.0225 304.223 59.4162L308.996 63.0525ZM321.094 57.3438C325.761 57.3438 328.723 58.7128 330.588 60.9828L335.224 57.1734C331.902 53.131 326.989 51.3438 321.094 51.3438V57.3438ZM330.6 60.9964C332.604 63.4058 333.896 67.3599 333.985 73.3725L339.984 73.2838C339.885 66.6089 338.459 61.063 335.213 57.1598L330.6 60.9964ZM333.984 73.3281V106H339.984V73.3281H333.984ZM336.984 103H321.141V109H336.984V103ZM324.141 106V73.9844H318.141V106H324.141ZM324.141 73.9844C324.141 71.1248 323.584 68.3784 321.859 66.3923L317.329 70.3264C317.666 70.7153 318.141 71.719 318.141 73.9844H324.141ZM321.884 66.4215C319.986 64.1783 316.974 63.5312 313.969 63.5312V69.5312C316.401 69.5312 317.139 70.103 317.304 70.2972L321.884 66.4215ZM313.969 63.5312C309.935 63.5312 306.62 65.2073 304.523 68.6152L309.633 71.7598C310.536 70.2927 311.815 69.5312 313.969 69.5312V63.5312ZM304.078 70.1875V106H310.078V70.1875H304.078ZM307.078 103H291.281V109H307.078V103ZM294.281 106V55.2812H288.281V106H294.281ZM291.281 58.2812H306.094V52.2812H291.281V58.2812Z" fill="#FFC107"/>
</g>
<path d="M351.7 20C350.831 20.0014 349.987 20.3153 349.303 20.8919C348.618 21.4685 348.132 22.2748 347.922 23.1828L347.914 23.191C347.9 23.2481 347.888 23.3056 347.876 23.3633L340.122 56.7664C340.042 57.1042 340.001 57.4514 340 57.8C340 58.9139 340.411 59.9822 341.142 60.7699C341.874 61.5575 342.866 62 343.9 62V104C343.9 108.591 347.437 112.4 351.7 112.4H421.9C426.163 112.4 429.7 108.591 429.7 104V62C430.734 62 431.726 61.5575 432.458 60.7699C433.189 59.9822 433.6 58.9139 433.6 57.8C433.599 57.4514 433.558 57.1042 433.478 56.7664L425.686 23.191L425.678 23.1828C425.468 22.2748 424.982 21.4685 424.297 20.8919C423.613 20.3153 422.769 20.0014 421.9 20H386.8H351.7ZM386.8 36.8L410.2 62H421.9V104H394.6V83C394.6 78.359 391.109 74.6 386.8 74.6C382.49 74.6 379 78.359 379 83V104H351.7V62H363.4L386.8 36.8ZM359.5 74.6V87.2H371.2V74.6H359.5ZM402.4 74.6V87.2H414.1V74.6H402.4Z" fill="#FFC107"/>
<defs>
<filter id="filter0_d" x="93.0781" y="31" width="250.906" height="105.5" filterUnits="userSpaceOnUse" color-interpolation-filters="sRGB">
<feFlood flood-opacity="0" result="BackgroundImageFix"/>
<feColorMatrix in="SourceAlpha" type="matrix" values="0 0 0 0 0 0 0 0 0 0 0 0 0 0 0 0 0 0 127 0"/>
<feOffset dy="4"/>
<feGaussianBlur stdDeviation="2"/>
<feColorMatrix type="matrix" values="0 0 0 0 0 0 0 0 0 0 0 0 0 0 0 0 0 0 0.25 0"/>
<feBlend mode="normal" in2="BackgroundImageFix" result="effect1_dropShadow"/>
<feBlend mode="normal" in="SourceGraphic" in2="effect1_dropShadow" result="shape"/>
</filter>
</defs>
</svg>
